<?xml version="1.0" encoding="UTF-8" standalone="no"?><svg xmlns="http://www.w3.org/2000/svg" xmlns:xlink="http://www.w3.org/1999/xlink" contentScriptType="application/ecmascript" contentStyleType="text/css" height="1077px" preserveAspectRatio="none" style="width:828px;height:1077px;" version="1.1" viewBox="0 0 828 1077" width="828px" zoomAndPan="magnify"><defs><filter height="300%" id="f1fzywa3acop2c" width="300%" x="-1" y="-1"><feGaussianBlur result="blurOut" stdDeviation="2.0"/><feColorMatrix in="blurOut" result="blurOut2" type="matrix" values="0 0 0 0 0 0 0 0 0 0 0 0 0 0 0 0 0 0 .4 0"/><feOffset dx="4.0" dy="4.0" in="blurOut2" result="blurOut3"/><feBlend in="SourceGraphic" in2="blurOut3" mode="normal"/></filter></defs><g><!--MD5=[8ec9fcce0f5c660aa28fe128722bc749]
class Anchor--><rect fill="#F7F7F7" filter="url(#f1fzywa3acop2c)" height="91.2188" id="Anchor" style="stroke: #01172F; stroke-width: 1.5;" width="82" x="6" y="792.5"/><ellipse cx="23.7" cy="808.5" fill="#BFEDC1" rx="11" ry="11" style="stroke: #01172F; stroke-width: 1.0;"/><path d="M27.8406,813.8125 Q26.9656,814.2813 26.0047,814.5078 Q25.0438,814.7344 24.0125,814.7344 Q20.9188,814.7344 19.1063,813.0078 Q17.2938,811.2813 17.2938,808.3125 Q17.2938,805.3438 19.1063,803.6094 Q20.9188,801.875 24.0125,801.875 Q25.0438,801.875 26.0047,802.1094 Q26.9656,802.3438 27.8406,802.7969 L27.8406,805.375 Q26.95,804.7656 26.0906,804.4844 Q25.2313,804.2031 24.2625,804.2031 Q22.5594,804.2031 21.5828,805.2969 Q20.6063,806.3906 20.6063,808.3125 Q20.6063,810.2344 21.5828,811.3281 Q22.5594,812.4219 24.2625,812.4219 Q25.2313,812.4219 26.0906,812.1406 Q26.95,811.8594 27.8406,811.25 L27.8406,813.8125 Z "/><text fill="#000000" font-family="Verdana" font-size="12" lengthAdjust="spacingAndGlyphs" textLength="44" x="38.3" y="812.6543">Anchor</text><line style="stroke: #01172F; stroke-width: 1.5;" x1="7" x2="87" y1="824.5" y2="824.5"/><ellipse cx="17" cy="835.5" fill="none" rx="3" ry="3" style="stroke: #038048; stroke-width: 1.0;"/><text fill="#000000" font-family="Verdana" font-size="11" lengthAdjust="spacingAndGlyphs" textLength="39" x="26" y="838.7104">x: float</text><ellipse cx="17" cy="848.3047" fill="none" rx="3" ry="3" style="stroke: #038048; stroke-width: 1.0;"/><text fill="#000000" font-family="Verdana" font-size="11" lengthAdjust="spacingAndGlyphs" textLength="39" x="26" y="851.5151">y: float</text><ellipse cx="17" cy="861.1094" fill="none" rx="3" ry="3" style="stroke: #038048; stroke-width: 1.0;"/><text fill="#000000" font-family="Verdana" font-size="11" lengthAdjust="spacingAndGlyphs" textLength="56" x="26" y="864.3198">name: str</text><rect fill="none" height="6" style="stroke: #C82930; stroke-width: 1.0;" width="6" x="14" y="870.9141"/><text fill="#000000" font-family="Verdana" font-size="11" lengthAdjust="spacingAndGlyphs" textLength="48" x="26" y="877.1245">selected</text><!--MD5=[813541db3c8afd20b39a54988f51aa2b]
class Axis--><rect fill="#F7F7F7" filter="url(#f1fzywa3acop2c)" height="104.0234" id="Axis" style="stroke: #01172F; stroke-width: 1.5;" width="88" x="61" y="341"/><ellipse cx="90.4" cy="357" fill="#BFEDC1" rx="11" ry="11" style="stroke: #01172F; stroke-width: 1.0;"/><path d="M94.5406,362.3125 Q93.6656,362.7813 92.7047,363.0078 Q91.7438,363.2344 90.7125,363.2344 Q87.6188,363.2344 85.8063,361.5078 Q83.9938,359.7813 83.9938,356.8125 Q83.9938,353.8438 85.8063,352.1094 Q87.6188,350.375 90.7125,350.375 Q91.7438,350.375 92.7047,350.6094 Q93.6656,350.8438 94.5406,351.2969 L94.5406,353.875 Q93.65,353.2656 92.7906,352.9844 Q91.9313,352.7031 90.9625,352.7031 Q89.2594,352.7031 88.2828,353.7969 Q87.3063,354.8906 87.3063,356.8125 Q87.3063,358.7344 88.2828,359.8281 Q89.2594,360.9219 90.9625,360.9219 Q91.9313,360.9219 92.7906,360.6406 Q93.65,360.3594 94.5406,359.75 L94.5406,362.3125 Z "/><text fill="#000000" font-family="Verdana" font-size="12" lengthAdjust="spacingAndGlyphs" textLength="24" x="107.6" y="361.1543">Axis</text><line style="stroke: #01172F; stroke-width: 1.5;" x1="62" x2="148" y1="373" y2="373"/><ellipse cx="72" cy="384" fill="none" rx="3" ry="3" style="stroke: #038048; stroke-width: 1.0;"/><text fill="#000000" font-family="Verdana" font-size="11" lengthAdjust="spacingAndGlyphs" textLength="57" x="81" y="387.2104">tag: str[4]</text><ellipse cx="72" cy="396.8047" fill="none" rx="3" ry="3" style="stroke: #038048; stroke-width: 1.0;"/><text fill="#000000" font-family="Verdana" font-size="11" lengthAdjust="spacingAndGlyphs" textLength="43" x="81" y="400.0151">min: int</text><ellipse cx="72" cy="409.6094" fill="none" rx="3" ry="3" style="stroke: #038048; stroke-width: 1.0;"/><text fill="#000000" font-family="Verdana" font-size="11" lengthAdjust="spacingAndGlyphs" textLength="46" x="81" y="412.8198">max: int</text><ellipse cx="72" cy="422.4141" fill="none" rx="3" ry="3" style="stroke: #038048; stroke-width: 1.0;"/><text fill="#000000" font-family="Verdana" font-size="11" lengthAdjust="spacingAndGlyphs" textLength="61" x="81" y="425.6245">default: int</text><ellipse cx="72" cy="435.2188" fill="none" rx="3" ry="3" style="stroke: #038048; stroke-width: 1.0;"/><text fill="#000000" font-family="Verdana" font-size="11" lengthAdjust="spacingAndGlyphs" textLength="62" x="81" y="438.4292">name: str?</text><!--MD5=[4e13963c9dc916a21a8436ef39422b32]
class Component--><rect fill="#F7F7F7" filter="url(#f1fzywa3acop2c)" height="78.4141" id="Component" style="stroke: #01172F; stroke-width: 1.5;" width="147" x="123.5" y="799"/><ellipse cx="157.85" cy="815" fill="#BFEDC1" rx="11" ry="11" style="stroke: #01172F; stroke-width: 1.0;"/><path d="M161.9906,820.3125 Q161.1156,820.7813 160.1547,821.0078 Q159.1938,821.2344 158.1625,821.2344 Q155.0688,821.2344 153.2563,819.5078 Q151.4438,817.7813 151.4438,814.8125 Q151.4438,811.8438 153.2563,810.1094 Q155.0688,808.375 158.1625,808.375 Q159.1938,808.375 160.1547,808.6094 Q161.1156,808.8438 161.9906,809.2969 L161.9906,811.875 Q161.1,811.2656 160.2406,810.9844 Q159.3813,810.7031 158.4125,810.7031 Q156.7094,810.7031 155.7328,811.7969 Q154.7563,812.8906 154.7563,814.8125 Q154.7563,816.7344 155.7328,817.8281 Q156.7094,818.9219 158.4125,818.9219 Q159.3813,818.9219 160.2406,818.6406 Q161.1,818.3594 161.9906,817.75 L161.9906,820.3125 Z "/><text fill="#000000" font-family="Verdana" font-size="12" lengthAdjust="spacingAndGlyphs" textLength="72" x="176.15" y="819.1543">Component</text><line style="stroke: #01172F; stroke-width: 1.5;" x1="124.5" x2="269.5" y1="831" y2="831"/><ellipse cx="134.5" cy="842" fill="none" rx="3" ry="3" style="stroke: #038048; stroke-width: 1.0;"/><text fill="#000000" font-family="Verdana" font-size="11" lengthAdjust="spacingAndGlyphs" textLength="87" x="143.5" y="845.2104">glyphName: str</text><polygon fill="none" points="134.5,850.8047,130.5,856.8047,138.5,856.8047" style="stroke: #1963A0; stroke-width: 1.0;"/><text fill="#000000" font-family="Verdana" font-size="11" lengthAdjust="spacingAndGlyphs" textLength="121" x="143.5" y="858.0151">transformation: tuple</text><rect fill="none" height="6" style="stroke: #C82930; stroke-width: 1.0;" width="6" x="131.5" y="864.6094"/><text fill="#000000" font-family="Verdana" font-size="11" lengthAdjust="spacingAndGlyphs" textLength="48" x="143.5" y="870.8198">selected</text><!--MD5=[6a4b3e39d382a486f52eb45bc299d39c]
class Font--><rect fill="#F7F7F7" filter="url(#f1fzywa3acop2c)" height="209.6563" id="Font" style="stroke: #01172F; stroke-width: 1.5;" width="160" x="301" y="8"/><ellipse cx="362.75" cy="24" fill="#BFEDC1" rx="11" ry="11" style="stroke: #01172F; stroke-width: 1.0;"/><path d="M366.8906,29.3125 Q366.0156,29.7813 365.0547,30.0078 Q364.0938,30.2344 363.0625,30.2344 Q359.9688,30.2344 358.1563,28.5078 Q356.3438,26.7813 356.3438,23.8125 Q356.3438,20.8438 358.1563,19.1094 Q359.9688,17.375 363.0625,17.375 Q364.0938,17.375 365.0547,17.6094 Q366.0156,17.8438 366.8906,18.2969 L366.8906,20.875 Q366,20.2656 365.1406,19.9844 Q364.2813,19.7031 363.3125,19.7031 Q361.6094,19.7031 360.6328,20.7969 Q359.6563,21.8906 359.6563,23.8125 Q359.6563,25.7344 360.6328,26.8281 Q361.6094,27.9219 363.3125,27.9219 Q364.2813,27.9219 365.1406,27.6406 Q366,27.3594 366.8906,26.75 L366.8906,29.3125 Z "/><text fill="#000000" font-family="Verdana" font-size="12" lengthAdjust="spacingAndGlyphs" textLength="28" x="383.25" y="28.1543">Font</text><line style="stroke: #01172F; stroke-width: 1.5;" x1="302" x2="460" y1="40" y2="40"/><ellipse cx="312" cy="51" fill="none" rx="3" ry="3" style="stroke: #038048; stroke-width: 1.0;"/><text fill="#000000" font-family="Verdana" font-size="11" lengthAdjust="spacingAndGlyphs" textLength="83" x="321" y="54.2104">date: datetime</text><ellipse cx="312" cy="63.8047" fill="none" rx="3" ry="3" style="stroke: #038048; stroke-width: 1.0;"/><text fill="#000000" font-family="Verdana" font-size="11" lengthAdjust="spacingAndGlyphs" textLength="91" x="321" y="67.0151">familyName: str</text><line style="stroke: #01172F; stroke-width: 1.0;" x1="302" x2="460" y1="73.6094" y2="73.6094"/><ellipse cx="312" cy="84.6094" fill="none" rx="3" ry="3" style="stroke: #038048; stroke-width: 1.0;"/><text fill="#000000" font-family="Verdana" font-size="11" lengthAdjust="spacingAndGlyphs" textLength="76" x="321" y="87.8198">copyright: str</text><ellipse cx="312" cy="97.4141" fill="none" rx="3" ry="3" style="stroke: #038048; stroke-width: 1.0;"/><text fill="#000000" font-family="Verdana" font-size="11" lengthAdjust="spacingAndGlyphs" textLength="74" x="321" y="100.6245">designer: str</text><ellipse cx="312" cy="110.2188" fill="none" rx="3" ry="3" style="stroke: #038048; stroke-width: 1.0;"/><text fill="#000000" font-family="Verdana" font-size="11" lengthAdjust="spacingAndGlyphs" textLength="95" x="321" y="113.4292">designerURL: str</text><ellipse cx="312" cy="123.0234" fill="none" rx="3" ry="3" style="stroke: #038048; stroke-width: 1.0;"/><text fill="#000000" font-family="Verdana" font-size="11" lengthAdjust="spacingAndGlyphs" textLength="101" x="321" y="126.2339">manufacturer: str</text><ellipse cx="312" cy="135.8281" fill="none" rx="3" ry="3" style="stroke: #038048; stroke-width: 1.0;"/><text fill="#000000" font-family="Verdana" font-size="11" lengthAdjust="spacingAndGlyphs" textLength="122" x="321" y="139.0386">manufacturerURL: str</text><ellipse cx="312" cy="148.6328" fill="none" rx="3" ry="3" style="stroke: #038048; stroke-width: 1.0;"/><text fill="#000000" font-family="Verdana" font-size="11" lengthAdjust="spacingAndGlyphs" textLength="87" x="321" y="151.8433">unitsPerEm: int</text><ellipse cx="312" cy="161.4375" fill="none" rx="3" ry="3" style="stroke: #038048; stroke-width: 1.0;"/><text fill="#000000" font-family="Verdana" font-size="11" lengthAdjust="spacingAndGlyphs" textLength="95" x="321" y="164.6479">versionMajor: int</text><ellipse cx="312" cy="174.2422" fill="none" rx="3" ry="3" style="stroke: #038048; stroke-width: 1.0;"/><text fill="#000000" font-family="Verdana" font-size="11" lengthAdjust="spacingAndGlyphs" textLength="95" x="321" y="177.4526">versionMinor: int</text><line style="stroke: #01172F; stroke-width: 1.0;" x1="302" x2="460" y1="184.0469" y2="184.0469"/><ellipse cx="312" cy="195.0469" fill="none" rx="3" ry="3" style="stroke: #038048; stroke-width: 1.0;"/><text fill="#000000" font-family="Verdana" font-size="11" lengthAdjust="spacingAndGlyphs" textLength="83" x="321" y="198.2573">extraData: dict</text><rect fill="none" height="6" style="stroke: #C82930; stroke-width: 1.0;" width="6" x="309" y="204.8516"/><text fill="#000000" font-family="Verdana" font-size="11" lengthAdjust="spacingAndGlyphs" textLength="134" x="321" y="211.062">selectedMaster: Master</text><!--MD5=[883fa52263b0a83cfd6faf40a275223b]
class Glyph--><rect fill="#F7F7F7" filter="url(#f1fzywa3acop2c)" height="132.8281" id="Glyph" style="stroke: #01172F; stroke-width: 1.5;" width="179" x="184.5" y="326.5"/><ellipse cx="252.75" cy="342.5" fill="#BFEDC1" rx="11" ry="11" style="stroke: #01172F; stroke-width: 1.0;"/><path d="M256.8906,347.8125 Q256.0156,348.2813 255.0547,348.5078 Q254.0938,348.7344 253.0625,348.7344 Q249.9688,348.7344 248.1563,347.0078 Q246.3438,345.2813 246.3438,342.3125 Q246.3438,339.3438 248.1563,337.6094 Q249.9688,335.875 253.0625,335.875 Q254.0938,335.875 255.0547,336.1094 Q256.0156,336.3438 256.8906,336.7969 L256.8906,339.375 Q256,338.7656 255.1406,338.4844 Q254.2813,338.2031 253.3125,338.2031 Q251.6094,338.2031 250.6328,339.2969 Q249.6563,340.3906 249.6563,342.3125 Q249.6563,344.2344 250.6328,345.3281 Q251.6094,346.4219 253.3125,346.4219 Q254.2813,346.4219 255.1406,346.1406 Q256,345.8594 256.8906,345.25 L256.8906,347.8125 Z "/><text fill="#000000" font-family="Verdana" font-size="12" lengthAdjust="spacingAndGlyphs" textLength="34" x="273.25" y="346.6543">Glyph</text><line style="stroke: #01172F; stroke-width: 1.5;" x1="185.5" x2="362.5" y1="358.5" y2="358.5"/><ellipse cx="195.5" cy="369.5" fill="none" rx="3" ry="3" style="stroke: #038048; stroke-width: 1.0;"/><text fill="#000000" font-family="Verdana" font-size="11" lengthAdjust="spacingAndGlyphs" textLength="56" x="204.5" y="372.7104">name: str</text><ellipse cx="195.5" cy="382.3047" fill="none" rx="3" ry="3" style="stroke: #038048; stroke-width: 1.0;"/><text fill="#000000" font-family="Verdana" font-size="11" lengthAdjust="spacingAndGlyphs" textLength="103" x="204.5" y="385.5151">unicodes: List[str]</text><line style="stroke: #01172F; stroke-width: 1.0;" x1="185.5" x2="362.5" y1="392.1094" y2="392.1094"/><ellipse cx="195.5" cy="403.1094" fill="none" rx="3" ry="3" style="stroke: #038048; stroke-width: 1.0;"/><text fill="#000000" font-family="Verdana" font-size="11" lengthAdjust="spacingAndGlyphs" textLength="153" x="204.5" y="406.3198">{l,r,b,t}KerningGroup: str?</text><line style="stroke: #01172F; stroke-width: 1.0;" x1="185.5" x2="362.5" y1="412.9141" y2="412.9141"/><ellipse cx="195.5" cy="423.9141" fill="none" rx="3" ry="3" style="stroke: #038048; stroke-width: 1.0;"/><text fill="#000000" font-family="Verdana" font-size="11" lengthAdjust="spacingAndGlyphs" textLength="64" x="204.5" y="427.1245">color: tuple</text><polygon fill="none" points="195.5,432.7188,191.5,438.7188,199.5,438.7188" style="stroke: #1963A0; stroke-width: 1.0;"/><text fill="#000000" font-family="Verdana" font-size="11" lengthAdjust="spacingAndGlyphs" textLength="83" x="204.5" y="439.9292">extraData: dict</text><rect fill="none" height="6" style="stroke: #C82930; stroke-width: 1.0;" width="6" x="192.5" y="446.5234"/><text fill="#000000" font-family="Verdana" font-size="11" lengthAdjust="spacingAndGlyphs" textLength="48" x="204.5" y="452.7339">selected</text><!--MD5=[65b5d45685920aaffb1cd96d3adf5b8c]
class Guideline--><rect fill="#F7F7F7" filter="url(#f1fzywa3acop2c)" height="104.0234" id="Guideline" style="stroke: #01172F; stroke-width: 1.5;" width="90" x="306" y="786"/><ellipse cx="321" cy="802" fill="#BFEDC1" rx="11" ry="11" style="stroke: #01172F; stroke-width: 1.0;"/><path d="M325.1406,807.3125 Q324.2656,807.7813 323.3047,808.0078 Q322.3438,808.2344 321.3125,808.2344 Q318.2188,808.2344 316.4063,806.5078 Q314.5938,804.7813 314.5938,801.8125 Q314.5938,798.8438 316.4063,797.1094 Q318.2188,795.375 321.3125,795.375 Q322.3438,795.375 323.3047,795.6094 Q324.2656,795.8438 325.1406,796.2969 L325.1406,798.875 Q324.25,798.2656 323.3906,797.9844 Q322.5313,797.7031 321.5625,797.7031 Q319.8594,797.7031 318.8828,798.7969 Q317.9063,799.8906 317.9063,801.8125 Q317.9063,803.7344 318.8828,804.8281 Q319.8594,805.9219 321.5625,805.9219 Q322.5313,805.9219 323.3906,805.6406 Q324.25,805.3594 325.1406,804.75 L325.1406,807.3125 Z "/><text fill="#000000" font-family="Verdana" font-size="12" lengthAdjust="spacingAndGlyphs" textLength="58" x="335" y="806.1543">Guideline</text><line style="stroke: #01172F; stroke-width: 1.5;" x1="307" x2="395" y1="818" y2="818"/><ellipse cx="317" cy="829" fill="none" rx="3" ry="3" style="stroke: #038048; stroke-width: 1.0;"/><text fill="#000000" font-family="Verdana" font-size="11" lengthAdjust="spacingAndGlyphs" textLength="39" x="326" y="832.2104">x: float</text><ellipse cx="317" cy="841.8047" fill="none" rx="3" ry="3" style="stroke: #038048; stroke-width: 1.0;"/><text fill="#000000" font-family="Verdana" font-size="11" lengthAdjust="spacingAndGlyphs" textLength="39" x="326" y="845.0151">y: float</text><ellipse cx="317" cy="854.6094" fill="none" rx="3" ry="3" style="stroke: #038048; stroke-width: 1.0;"/><text fill="#000000" font-family="Verdana" font-size="11" lengthAdjust="spacingAndGlyphs" textLength="64" x="326" y="857.8198">angle: float</text><ellipse cx="317" cy="867.4141" fill="none" rx="3" ry="3" style="stroke: #038048; stroke-width: 1.0;"/><text fill="#000000" font-family="Verdana" font-size="11" lengthAdjust="spacingAndGlyphs" textLength="62" x="326" y="870.6245">name: str?</text><rect fill="none" height="6" style="stroke: #C82930; stroke-width: 1.0;" width="6" x="314" y="877.2188"/><text fill="#000000" font-family="Verdana" font-size="11" lengthAdjust="spacingAndGlyphs" textLength="48" x="326" y="883.4292">selected</text><!--MD5=[dbfd7680984eb54d794e10dee7f3936a]
class Instance--><rect fill="#F7F7F7" filter="url(#f1fzywa3acop2c)" height="163.2422" id="Instance" style="stroke: #01172F; stroke-width: 1.5;" width="179" x="398.5" y="311.5"/><ellipse cx="456.75" cy="327.5" fill="#BFEDC1" rx="11" ry="11" style="stroke: #01172F; stroke-width: 1.0;"/><path d="M460.8906,332.8125 Q460.0156,333.2813 459.0547,333.5078 Q458.0938,333.7344 457.0625,333.7344 Q453.9688,333.7344 452.1563,332.0078 Q450.3438,330.2813 450.3438,327.3125 Q450.3438,324.3438 452.1563,322.6094 Q453.9688,320.875 457.0625,320.875 Q458.0938,320.875 459.0547,321.1094 Q460.0156,321.3438 460.8906,321.7969 L460.8906,324.375 Q460,323.7656 459.1406,323.4844 Q458.2813,323.2031 457.3125,323.2031 Q455.6094,323.2031 454.6328,324.2969 Q453.6563,325.3906 453.6563,327.3125 Q453.6563,329.2344 454.6328,330.3281 Q455.6094,331.4219 457.3125,331.4219 Q458.2813,331.4219 459.1406,331.1406 Q460,330.8594 460.8906,330.25 L460.8906,332.8125 Z "/><text fill="#000000" font-family="Verdana" font-size="12" lengthAdjust="spacingAndGlyphs" textLength="54" x="477.25" y="331.6543">Instance</text><line style="stroke: #01172F; stroke-width: 1.5;" x1="399.5" x2="576.5" y1="343.5" y2="343.5"/><ellipse cx="409.5" cy="354.5" fill="none" rx="3" ry="3" style="stroke: #038048; stroke-width: 1.0;"/><text fill="#000000" font-family="Verdana" font-size="11" lengthAdjust="spacingAndGlyphs" textLength="91" x="418.5" y="357.7104">familyName: str</text><ellipse cx="409.5" cy="367.3047" fill="none" rx="3" ry="3" style="stroke: #038048; stroke-width: 1.0;"/><text fill="#000000" font-family="Verdana" font-size="11" lengthAdjust="spacingAndGlyphs" textLength="84" x="418.5" y="370.5151">styleName: str</text><ellipse cx="409.5" cy="380.1094" fill="none" rx="3" ry="3" style="stroke: #038048; stroke-width: 1.0;"/><text fill="#000000" font-family="Verdana" font-size="11" lengthAdjust="spacingAndGlyphs" textLength="119" x="418.5" y="383.3198">location: Dict[str, int]</text><line style="stroke: #01172F; stroke-width: 1.0;" x1="399.5" x2="576.5" y1="389.9141" y2="389.9141"/><ellipse cx="409.5" cy="400.9141" fill="none" rx="3" ry="3" style="stroke: #038048; stroke-width: 1.0;"/><text fill="#000000" font-family="Verdana" font-size="11" lengthAdjust="spacingAndGlyphs" textLength="56" x="418.5" y="404.1245">bold: bool</text><ellipse cx="409.5" cy="413.7188" fill="none" rx="3" ry="3" style="stroke: #038048; stroke-width: 1.0;"/><text fill="#000000" font-family="Verdana" font-size="11" lengthAdjust="spacingAndGlyphs" textLength="58" x="418.5" y="416.9292">italic: bool</text><ellipse cx="409.5" cy="426.5234" fill="none" rx="3" ry="3" style="stroke: #038048; stroke-width: 1.0;"/><text fill="#000000" font-family="Verdana" font-size="11" lengthAdjust="spacingAndGlyphs" textLength="153" x="418.5" y="429.7339">preferredFamilyName: str?</text><ellipse cx="409.5" cy="439.3281" fill="none" rx="3" ry="3" style="stroke: #038048; stroke-width: 1.0;"/><text fill="#000000" font-family="Verdana" font-size="11" lengthAdjust="spacingAndGlyphs" textLength="143" x="418.5" y="442.5386">preferredSubfamilyName</text><ellipse cx="409.5" cy="452.1328" fill="none" rx="3" ry="3" style="stroke: #038048; stroke-width: 1.0;"/><text fill="#000000" font-family="Verdana" font-size="11" lengthAdjust="spacingAndGlyphs" textLength="114" x="418.5" y="455.3433">postscriptFontName</text><ellipse cx="409.5" cy="464.9375" fill="none" rx="3" ry="3" style="stroke: #038048; stroke-width: 1.0;"/><text fill="#000000" font-family="Verdana" font-size="11" lengthAdjust="spacingAndGlyphs" textLength="109" x="418.5" y="468.1479">postscriptFullName</text><!--MD5=[a97cfd095b0077d714bcddc8cbc855aa]
class Layer--><rect fill="#F7F7F7" filter="url(#f1fzywa3acop2c)" height="158.4375" id="Layer" style="stroke: #01172F; stroke-width: 1.5;" width="151" x="198.5" y="568"/><ellipse cx="253.25" cy="584" fill="#BFEDC1" rx="11" ry="11" style="stroke: #01172F; stroke-width: 1.0;"/><path d="M257.3906,589.3125 Q256.5156,589.7813 255.5547,590.0078 Q254.5938,590.2344 253.5625,590.2344 Q250.4688,590.2344 248.6563,588.5078 Q246.8438,586.7813 246.8438,583.8125 Q246.8438,580.8438 248.6563,579.1094 Q250.4688,577.375 253.5625,577.375 Q254.5938,577.375 255.5547,577.6094 Q256.5156,577.8438 257.3906,578.2969 L257.3906,580.875 Q256.5,580.2656 255.6406,579.9844 Q254.7813,579.7031 253.8125,579.7031 Q252.1094,579.7031 251.1328,580.7969 Q250.1563,581.8906 250.1563,583.8125 Q250.1563,585.7344 251.1328,586.8281 Q252.1094,587.9219 253.8125,587.9219 Q254.7813,587.9219 255.6406,587.6406 Q256.5,587.3594 257.3906,586.75 L257.3906,589.3125 Z "/><text fill="#000000" font-family="Verdana" font-size="12" lengthAdjust="spacingAndGlyphs" textLength="33" x="273.75" y="588.1543">Layer</text><line style="stroke: #01172F; stroke-width: 1.5;" x1="199.5" x2="348.5" y1="600" y2="600"/><ellipse cx="209.5" cy="611" fill="none" rx="3" ry="3" style="stroke: #038048; stroke-width: 1.0;"/><text fill="#000000" font-family="Verdana" font-size="11" lengthAdjust="spacingAndGlyphs" textLength="98" x="218.5" y="614.2104">masterName: str</text><polygon fill="none" points="209.5,619.8047,205.5,625.8047,213.5,625.8047" style="stroke: #1963A0; stroke-width: 1.0;"/><text fill="#000000" font-family="Verdana" font-size="11" lengthAdjust="spacingAndGlyphs" textLength="56" x="218.5" y="627.0151">name: str</text><ellipse cx="209.5" cy="636.6094" fill="none" rx="3" ry="3" style="stroke: #038048; stroke-width: 1.0;"/><text fill="#000000" font-family="Verdana" font-size="11" lengthAdjust="spacingAndGlyphs" textLength="125" x="218.5" y="639.8198">location: Dict[str, int]?</text><line style="stroke: #01172F; stroke-width: 1.0;" x1="199.5" x2="348.5" y1="646.4141" y2="646.4141"/><ellipse cx="209.5" cy="657.4141" fill="none" rx="3" ry="3" style="stroke: #038048; stroke-width: 1.0;"/><text fill="#000000" font-family="Verdana" font-size="11" lengthAdjust="spacingAndGlyphs" textLength="63" x="218.5" y="660.6245">width: float</text><ellipse cx="209.5" cy="670.2188" fill="none" rx="3" ry="3" style="stroke: #038048; stroke-width: 1.0;"/><text fill="#000000" font-family="Verdana" font-size="11" lengthAdjust="spacingAndGlyphs" textLength="68" x="218.5" y="673.4292">height: float</text><ellipse cx="209.5" cy="683.0234" fill="none" rx="3" ry="3" style="stroke: #038048; stroke-width: 1.0;"/><text fill="#000000" font-family="Verdana" font-size="11" lengthAdjust="spacingAndGlyphs" textLength="79" x="218.5" y="686.2339">yOrigin: float?</text><line style="stroke: #01172F; stroke-width: 1.0;" x1="199.5" x2="348.5" y1="692.8281" y2="692.8281"/><ellipse cx="209.5" cy="703.8281" fill="none" rx="3" ry="3" style="stroke: #038048; stroke-width: 1.0;"/><text fill="#000000" font-family="Verdana" font-size="11" lengthAdjust="spacingAndGlyphs" textLength="64" x="218.5" y="707.0386">color: tuple</text><polygon fill="none" points="209.5,712.6328,205.5,718.6328,213.5,718.6328" style="stroke: #1963A0; stroke-width: 1.0;"/><text fill="#000000" font-family="Verdana" font-size="11" lengthAdjust="spacingAndGlyphs" textLength="83" x="218.5" y="719.8433">extraData: dict</text><!--MD5=[d27eaf150e369198f69b6e9754f1a23b]
class Master--><rect fill="#F7F7F7" filter="url(#f1fzywa3acop2c)" height="230.4609" id="Master" style="stroke: #01172F; stroke-width: 1.5;" width="204" x="613" y="278"/><ellipse cx="689.25" cy="294" fill="#BFEDC1" rx="11" ry="11" style="stroke: #01172F; stroke-width: 1.0;"/><path d="M693.3906,299.3125 Q692.5156,299.7813 691.5547,300.0078 Q690.5938,300.2344 689.5625,300.2344 Q686.4688,300.2344 684.6563,298.5078 Q682.8438,296.7813 682.8438,293.8125 Q682.8438,290.8438 684.6563,289.1094 Q686.4688,287.375 689.5625,287.375 Q690.5938,287.375 691.5547,287.6094 Q692.5156,287.8438 693.3906,288.2969 L693.3906,290.875 Q692.5,290.2656 691.6406,289.9844 Q690.7813,289.7031 689.8125,289.7031 Q688.1094,289.7031 687.1328,290.7969 Q686.1563,291.8906 686.1563,293.8125 Q686.1563,295.7344 687.1328,296.8281 Q688.1094,297.9219 689.8125,297.9219 Q690.7813,297.9219 691.6406,297.6406 Q692.5,297.3594 693.3906,296.75 L693.3906,299.3125 Z "/><text fill="#000000" font-family="Verdana" font-size="12" lengthAdjust="spacingAndGlyphs" textLength="43" x="709.75" y="298.1543">Master</text><line style="stroke: #01172F; stroke-width: 1.5;" x1="614" x2="816" y1="310" y2="310"/><ellipse cx="624" cy="321" fill="none" rx="3" ry="3" style="stroke: #038048; stroke-width: 1.0;"/><text fill="#000000" font-family="Verdana" font-size="11" lengthAdjust="spacingAndGlyphs" textLength="56" x="633" y="324.2104">name: str</text><ellipse cx="624" cy="333.8047" fill="none" rx="3" ry="3" style="stroke: #038048; stroke-width: 1.0;"/><text fill="#000000" font-family="Verdana" font-size="11" lengthAdjust="spacingAndGlyphs" textLength="119" x="633" y="337.0151">location: Dict[str, int]</text><line style="stroke: #01172F; stroke-width: 1.0;" x1="614" x2="816" y1="343.6094" y2="343.6094"/><ellipse cx="624" cy="354.6094" fill="none" rx="3" ry="3" style="stroke: #038048; stroke-width: 1.0;"/><text fill="#000000" font-family="Verdana" font-size="11" lengthAdjust="spacingAndGlyphs" textLength="93" x="633" y="357.8198">alignmentZones</text><ellipse cx="624" cy="367.4141" fill="none" rx="3" ry="3" style="stroke: #038048; stroke-width: 1.0;"/><text fill="#000000" font-family="Verdana" font-size="11" lengthAdjust="spacingAndGlyphs" textLength="94" x="633" y="370.6245">hStems: List[int]</text><ellipse cx="624" cy="380.2188" fill="none" rx="3" ry="3" style="stroke: #038048; stroke-width: 1.0;"/><text fill="#000000" font-family="Verdana" font-size="11" lengthAdjust="spacingAndGlyphs" textLength="43" x="633" y="383.4292">vStems</text><line style="stroke: #01172F; stroke-width: 1.0;" x1="614" x2="816" y1="390.0234" y2="390.0234"/><ellipse cx="624" cy="401.0234" fill="none" rx="3" ry="3" style="stroke: #038048; stroke-width: 1.0;"/><text fill="#000000" font-family="Verdana" font-size="11" lengthAdjust="spacingAndGlyphs" textLength="58" x="633" y="404.2339">guidelines</text><ellipse cx="624" cy="413.8281" fill="none" rx="3" ry="3" style="stroke: #038048; stroke-width: 1.0;"/><text fill="#000000" font-family="Verdana" font-size="11" lengthAdjust="spacingAndGlyphs" textLength="178" x="633" y="417.0386">hKerning: Dict[str, Dict[str, int]]</text><ellipse cx="624" cy="426.6328" fill="none" rx="3" ry="3" style="stroke: #038048; stroke-width: 1.0;"/><text fill="#000000" font-family="Verdana" font-size="11" lengthAdjust="spacingAndGlyphs" textLength="49" x="633" y="429.8433">vKerning</text><line style="stroke: #01172F; stroke-width: 1.0;" x1="614" x2="816" y1="436.4375" y2="436.4375"/><ellipse cx="624" cy="447.4375" fill="none" rx="3" ry="3" style="stroke: #038048; stroke-width: 1.0;"/><text fill="#000000" font-family="Verdana" font-size="11" lengthAdjust="spacingAndGlyphs" textLength="75" x="633" y="450.6479">ascender: int</text><ellipse cx="624" cy="460.2422" fill="none" rx="3" ry="3" style="stroke: #038048; stroke-width: 1.0;"/><text fill="#000000" font-family="Verdana" font-size="11" lengthAdjust="spacingAndGlyphs" textLength="78" x="633" y="463.4526">capHeight: int</text><ellipse cx="624" cy="473.0469" fill="none" rx="3" ry="3" style="stroke: #038048; stroke-width: 1.0;"/><text fill="#000000" font-family="Verdana" font-size="11" lengthAdjust="spacingAndGlyphs" textLength="82" x="633" y="476.2573">descender: int</text><ellipse cx="624" cy="485.8516" fill="none" rx="3" ry="3" style="stroke: #038048; stroke-width: 1.0;"/><text fill="#000000" font-family="Verdana" font-size="11" lengthAdjust="spacingAndGlyphs" textLength="90" x="633" y="489.062">italicAngle: float</text><ellipse cx="624" cy="498.6563" fill="none" rx="3" ry="3" style="stroke: #038048; stroke-width: 1.0;"/><text fill="#000000" font-family="Verdana" font-size="11" lengthAdjust="spacingAndGlyphs" textLength="64" x="633" y="501.8667">xHeight: int</text><!--MD5=[db94511ff73c25040c57072aa4771965]
class Path--><rect fill="#F7F7F7" filter="url(#f1fzywa3acop2c)" height="52.8047" id="Path" style="stroke: #01172F; stroke-width: 1.5;" width="109" x="431.5" y="811.5"/><ellipse cx="468.1" cy="827.5" fill="#BFEDC1" rx="11" ry="11" style="stroke: #01172F; stroke-width: 1.0;"/><path d="M472.2406,832.8125 Q471.3656,833.2813 470.4047,833.5078 Q469.4438,833.7344 468.4125,833.7344 Q465.3188,833.7344 463.5063,832.0078 Q461.6938,830.2813 461.6938,827.3125 Q461.6938,824.3438 463.5063,822.6094 Q465.3188,820.875 468.4125,820.875 Q469.4438,820.875 470.4047,821.1094 Q471.3656,821.3438 472.2406,821.7969 L472.2406,824.375 Q471.35,823.7656 470.4906,823.4844 Q469.6313,823.2031 468.6625,823.2031 Q466.9594,823.2031 465.9828,824.2969 Q465.0063,825.3906 465.0063,827.3125 Q465.0063,829.2344 465.9828,830.3281 Q466.9594,831.4219 468.6625,831.4219 Q469.6313,831.4219 470.4906,831.1406 Q471.35,830.8594 472.2406,830.25 L472.2406,832.8125 Z "/><text fill="#000000" font-family="Verdana" font-size="12" lengthAdjust="spacingAndGlyphs" textLength="29" x="486.9" y="831.6543">Path</text><line style="stroke: #01172F; stroke-width: 1.5;" x1="432.5" x2="539.5" y1="843.5" y2="843.5"/><polygon fill="none" points="442.5,850.5,438.5,856.5,446.5,856.5" style="stroke: #1963A0; stroke-width: 1.0;"/><text fill="#000000" font-family="Verdana" font-size="11" lengthAdjust="spacingAndGlyphs" textLength="83" x="451.5" y="857.7104">extraData: dict</text><!--MD5=[972bde5337b4335dd91fa5354c932445]
class Point--><rect fill="#F7F7F7" filter="url(#f1fzywa3acop2c)" height="116.8281" id="Point" style="stroke: #01172F; stroke-width: 1.5;" width="109" x="431.5" y="950"/><ellipse cx="466.75" cy="966" fill="#BFEDC1" rx="11" ry="11" style="stroke: #01172F; stroke-width: 1.0;"/><path d="M470.8906,971.3125 Q470.0156,971.7813 469.0547,972.0078 Q468.0938,972.2344 467.0625,972.2344 Q463.9688,972.2344 462.1563,970.5078 Q460.3438,968.7813 460.3438,965.8125 Q460.3438,962.8438 462.1563,961.1094 Q463.9688,959.375 467.0625,959.375 Q468.0938,959.375 469.0547,959.6094 Q470.0156,959.8438 470.8906,960.2969 L470.8906,962.875 Q470,962.2656 469.1406,961.9844 Q468.2813,961.7031 467.3125,961.7031 Q465.6094,961.7031 464.6328,962.7969 Q463.6563,963.8906 463.6563,965.8125 Q463.6563,967.7344 464.6328,968.8281 Q465.6094,969.9219 467.3125,969.9219 Q468.2813,969.9219 469.1406,969.6406 Q470,969.3594 470.8906,968.75 L470.8906,971.3125 Z "/><text fill="#000000" font-family="Verdana" font-size="12" lengthAdjust="spacingAndGlyphs" textLength="32" x="485.25" y="970.1543">Point</text><line style="stroke: #01172F; stroke-width: 1.5;" x1="432.5" x2="539.5" y1="982" y2="982"/><ellipse cx="442.5" cy="993" fill="none" rx="3" ry="3" style="stroke: #038048; stroke-width: 1.0;"/><text fill="#000000" font-family="Verdana" font-size="11" lengthAdjust="spacingAndGlyphs" textLength="39" x="451.5" y="996.2104">x: float</text><ellipse cx="442.5" cy="1005.8047" fill="none" rx="3" ry="3" style="stroke: #038048; stroke-width: 1.0;"/><text fill="#000000" font-family="Verdana" font-size="11" lengthAdjust="spacingAndGlyphs" textLength="39" x="451.5" y="1009.0151">y: float</text><ellipse cx="442.5" cy="1018.6094" fill="none" rx="3" ry="3" style="stroke: #038048; stroke-width: 1.0;"/><text fill="#000000" font-family="Verdana" font-size="11" lengthAdjust="spacingAndGlyphs" textLength="64" x="451.5" y="1021.8198">type: enum</text><ellipse cx="442.5" cy="1031.4141" fill="none" rx="3" ry="3" style="stroke: #038048; stroke-width: 1.0;"/><text fill="#000000" font-family="Verdana" font-size="11" lengthAdjust="spacingAndGlyphs" textLength="75" x="451.5" y="1034.6245">smooth: bool</text><polygon fill="none" points="442.5,1040.2188,438.5,1046.2188,446.5,1046.2188" style="stroke: #1963A0; stroke-width: 1.0;"/><text fill="#000000" font-family="Verdana" font-size="11" lengthAdjust="spacingAndGlyphs" textLength="83" x="451.5" y="1047.4292">extraData: dict</text><rect fill="none" height="6" style="stroke: #C82930; stroke-width: 1.0;" width="6" x="439.5" y="1054.0234"/><text fill="#000000" font-family="Verdana" font-size="11" lengthAdjust="spacingAndGlyphs" textLength="48" x="451.5" y="1060.2339">selected</text><!--MD5=[fe43be5697e38bf6fee8d8221ad0b6e2]
reverse link Font to Axis--><path d="M290.059,170.894 C249.077,199.56 202.118,236.936 167,278 C151.039,296.663 137.43,320.1 127.064,340.863 " fill="none" id="Font&lt;-Axis" style="stroke: #7A6563; stroke-width: 1.0;"/><polygon fill="#7A6563" points="300.889,163.422,293.6788,163.5372,291.012,170.237,298.2222,170.1218,300.889,163.422" style="stroke: #7A6563; stroke-width: 1.0;"/><text fill="#000000" font-family="Verdana" font-size="13" lengthAdjust="spacingAndGlyphs" textLength="30" x="263.0126" y="164.0631">axes</text><text fill="#000000" font-family="Verdana" font-size="13" lengthAdjust="spacingAndGlyphs" textLength="22" x="106.5503" y="329.9235">List</text><!--MD5=[ae3cd777b3635764fbafb782bab21559]
reverse link Font to Glyph--><path d="M336.073,230.726 C323.504,263.383 310.286,297.724 299.293,326.284 " fill="none" id="Font&lt;-Glyph" style="stroke: #7A6563; stroke-width: 1.0;"/><polygon fill="#7A6563" points="340.853,218.308,334.9645,222.4704,336.542,229.5069,342.4305,225.3445,340.853,218.308" style="stroke: #7A6563; stroke-width: 1.0;"/><text fill="#000000" font-family="Verdana" font-size="13" lengthAdjust="spacingAndGlyphs" textLength="41" x="295.9678" y="237.6169">glyphs</text><text fill="#000000" font-family="Verdana" font-size="13" lengthAdjust="spacingAndGlyphs" textLength="22" x="278.8563" y="315.2502">List</text><!--MD5=[1d3156b39aa69e8587495b93bfbaeebb]
reverse link Font to Instance--><path d="M425.916,230.698 C436.378,257.879 447.289,286.227 456.993,311.439 " fill="none" id="Font&lt;-Instance" style="stroke: #7A6563; stroke-width: 1.0;"/><polygon fill="#7A6563" points="421.147,218.308,419.5695,225.3445,425.458,229.5069,427.0355,222.4704,421.147,218.308" style="stroke: #7A6563; stroke-width: 1.0;"/><text fill="#000000" font-family="Verdana" font-size="13" lengthAdjust="spacingAndGlyphs" textLength="61" x="360.765" y="237.6169">instances</text><text fill="#000000" font-family="Verdana" font-size="13" lengthAdjust="spacingAndGlyphs" textLength="22" x="431.2518" y="300.569">List</text><!--MD5=[49bd87861f0a2a638cd8a15b7c3677c2]
reverse link Font to Master--><path d="M471.824,180.26 C510.524,209.343 555.714,244.449 595,278 C600.9,283.039 606.89,288.283 612.886,293.632 " fill="none" id="Font&lt;-Master" style="stroke: #7A6563; stroke-width: 1.0;"/><polygon fill="#7A6563" points="461.091,172.223,463.4964,179.0211,470.6967,179.4154,468.2913,172.6173,461.091,172.223" style="stroke: #7A6563; stroke-width: 1.0;"/><text fill="#000000" font-family="Verdana" font-size="13" lengthAdjust="spacingAndGlyphs" textLength="53" x="468.9188" y="173.1058">masters</text><text fill="#000000" font-family="Verdana" font-size="13" lengthAdjust="spacingAndGlyphs" textLength="22" x="582.9327" y="283.1732">List</text><!--MD5=[999602647a795568af879df7d773cd08]
reverse link Glyph to Layer--><path d="M274,472.69 C274,502.977 274,537.531 274,567.775 " fill="none" id="Glyph&lt;-Layer" style="stroke: #7A6563; stroke-width: 1.0;"/><polygon fill="#7A6563" points="274,459.552,270,465.552,274,471.552,278,465.552,274,459.552" style="stroke: #7A6563; stroke-width: 1.0;"/><text fill="#000000" font-family="Verdana" font-size="13" lengthAdjust="spacingAndGlyphs" textLength="38" x="234.0406" y="479.2712">layers</text><text fill="#000000" font-family="Verdana" font-size="13" lengthAdjust="spacingAndGlyphs" textLength="22" x="250.9859" y="556.8329">List</text><!--MD5=[1641efece8eac7153a88d14b594749de]
reverse link Layer to Anchor--><path d="M188.029,717.924 C161.601,739.605 132.5,763.669 106,786 C100.202,790.886 94.1175,796.075 88.1491,801.2 " fill="none" id="Layer&lt;-Anchor" style="stroke: #7A6563; stroke-width: 1.0;"/><polygon fill="#7A6563" points="198.399,709.426,191.2228,710.135,189.1172,717.0318,196.2934,716.3228,198.399,709.426" style="stroke: #7A6563; stroke-width: 1.0;"/><text fill="#000000" font-family="Verdana" font-size="13" lengthAdjust="spacingAndGlyphs" textLength="51" x="139.3425" y="710.8577">anchors</text><text fill="#000000" font-family="Verdana" font-size="13" lengthAdjust="spacingAndGlyphs" textLength="22" x="93.4665" y="789.956">List</text><!--MD5=[541df1154f9f7c910c0d3c1b6cca8a31]
reverse link Layer to Component--><path d="M237.178,738.381 C228.488,759.712 219.683,781.325 212.539,798.858 " fill="none" id="Layer&lt;-Component" style="stroke: #7A6563; stroke-width: 1.0;"/><polygon fill="#7A6563" points="242.125,726.238,236.1565,730.2849,237.5966,737.3507,243.565,733.3039,242.125,726.238" style="stroke: #7A6563; stroke-width: 1.0;"/><text fill="#000000" font-family="Verdana" font-size="13" lengthAdjust="spacingAndGlyphs" textLength="80" x="155.2744" y="746.5576">components</text><text fill="#000000" font-family="Verdana" font-size="13" lengthAdjust="spacingAndGlyphs" textLength="22" x="191.3191" y="787.8841">List</text><!--MD5=[c43f920e89a83ee4b16e722bb1af7d21]
reverse link Layer to Guideline--><path d="M310.905,738.584 C317.516,754.811 324.189,771.191 330.144,785.808 " fill="none" id="Layer&lt;-Guideline" style="stroke: #7A6563; stroke-width: 1.0;"/><polygon fill="#7A6563" points="305.875,726.238,304.435,733.3039,310.4034,737.3507,311.8435,730.2849,305.875,726.238" style="stroke: #7A6563; stroke-width: 1.0;"/><text fill="#000000" font-family="Verdana" font-size="13" lengthAdjust="spacingAndGlyphs" textLength="64" x="311.9631" y="746.5576">guidelines</text><text fill="#000000" font-family="Verdana" font-size="13" lengthAdjust="spacingAndGlyphs" textLength="22" x="303.8634" y="774.8611">List</text><!--MD5=[017b4335918736dfef66f63aa88bef30]
reverse link Layer to Path--><path d="M359.374,724.112 C394.226,755.182 432.172,789.012 457.346,811.455 " fill="none" id="Layer&lt;-Path" style="stroke: #7A6563; stroke-width: 1.0;"/><polygon fill="#7A6563" points="349.639,715.433,351.4553,722.4116,358.5957,723.4191,356.7794,716.4405,349.639,715.433" style="stroke: #7A6563; stroke-width: 1.0;"/><text fill="#000000" font-family="Verdana" font-size="13" lengthAdjust="spacingAndGlyphs" textLength="36" x="357.3935" y="717.5333">paths</text><text fill="#000000" font-family="Verdana" font-size="13" lengthAdjust="spacingAndGlyphs" textLength="22" x="425.6803" y="800.2634">List</text><!--MD5=[6fff72dc74e1cd0cf8f0f97528232f81]
reverse link Path to Point--><path d="M486,877.737 C486,899.104 486,926.051 486,949.845 " fill="none" id="Path&lt;-Point" style="stroke: #7A6563; stroke-width: 1.0;"/><polygon fill="#7A6563" points="486,864.592,482,870.592,486,876.592,490,870.592,486,864.592" style="stroke: #7A6563; stroke-width: 1.0;"/><text fill="#000000" font-family="Verdana" font-size="13" lengthAdjust="spacingAndGlyphs" textLength="39" x="442.4906" y="884.5806">points</text><text fill="#000000" font-family="Verdana" font-size="13" lengthAdjust="spacingAndGlyphs" textLength="22" x="462.6594" y="938.8678">List</text><!--MD5=[08dfde2ae94612a6a219c68009dd9f3c]
@startuml
skinparam defaultFontName Verdana
skinparam circledCharacterFontName "Lucida Console"
skinparam stereotypeCBackgroundColor #BFEDC1
skinparam class {
  ArrowColor #7A6563
  BackgroundColor #F7F7F7
  BorderColor #01172F
}

class Anchor {
  + x: float
  + y: float
  + name: str
  - selected
}

class Axis {
  + tag: str[4]
  + min: int
  + max: int
  + default: int
  + name: str?
}

class Component {
  + glyphName: str
  ~ transformation: tuple
  - selected
}

class Font {
  + date: datetime
  + familyName: str
  - - -
  + copyright: str
  + designer: str
  + designerURL: str
  + manufacturer: str
  + manufacturerURL: str
  + unitsPerEm: int
  + versionMajor: int
  + versionMinor: int
  - - -
  + extraData: dict
  - selectedMaster: Master
}

class Glyph {
  + name: str
  + unicodes: List[str]
  - - -
  + {l,r,b,t}KerningGroup: str?
  - - -
  + color: tuple
  ~ extraData: dict
  - selected
}

class Guideline {
  + x: float
  + y: float
  + angle: float
  + name: str?
  - selected
}

class Instance {
  + familyName: str
  + styleName: str
  + location: Dict[str, int]
  - - -
  + bold: bool
  + italic: bool
  + preferredFamilyName: str?
  + preferredSubfamilyName
  + postscriptFontName
  + postscriptFullName
}

class Layer {
  + masterName: str
  ~ name: str
  + location: Dict[str, int]?
  - - -
  + width: float
  + height: float
  + yOrigin: float?
  - - -
  + color: tuple
  ~ extraData: dict
}

class Master {
  + name: str
  + location: Dict[str, int]
  - - -
  + alignmentZones
  + hStems: List[int]
  + vStems
  - - -
  + guidelines
  + hKerning: Dict[str, Dict[str, int]]
  + vKerning
  - - -
  + ascender: int
  + capHeight: int
  + descender: int
  + italicAngle: float
  + xHeight: int
}

class Path {
  ~ extraData: dict
}

class Point {
  + x: float
  + y: float
  + type: enum
  + smooth: bool
  ~ extraData: dict
  - selected
}

Font "axes" *- - "List" Axis
Font "glyphs" *- - "List" Glyph
Font "instances" *- - "List" Instance
Font "masters" *- - "List" Master
Glyph "layers" *- - "List" Layer
Layer "anchors" *- - "List" Anchor
Layer "components" *- - "List" Component
Layer "guidelines" *- - "List" Guideline
Layer "paths" *- - "List" Path
Path "points" *- - "List" Point

hide empty members
hide empty methods
@enduml

PlantUML version 1.2019.13(Tue Dec 10 17:18:29 UTC 2019)
(GPL source distribution)
Java Runtime: Java(TM) SE Runtime Environment
JVM: Java HotSpot(TM) 64-Bit Server VM
Java Version: 1.7.0_25-b15
Operating System: Linux
Default Encoding: UTF-8
Language: en
Country: US
--></g></svg>